# xmcd
#
# Track frame offsets:
#	150
#	11502
#	25640
#	42288
#	52261
#	67083
#	83621
#	95667
#	109460
#	126680
#	151550
#	162512
#	181293
#	196902
#	204060
#	218423
#	234887
#	252411
#	266853
#	281843
#	299786
#
# Disc length: 4227 seconds
#
# Revision: 0
# Processed by: cddbd v1.5.2PL0 Copyright (c) Steve Scherf et al.
# Submitted via: audiograbber 1.83.01
#
DISCID=36108115
DTITLE=Joyce-Ramgatie - Joyce-Ramgatie 001
DYEAR=2006
DGENRE=Country
TTITLE0=Jim Owen and Barbara Fairchild  - Louisiana Woman, Mississippi M
TTITLE1=Joyce Ramgatie  - My Daddy Was A Country Star
TTITLE2=Country Singers - written by J
TTITLE3=My, My, My - written by Sherry
TTITLE4=Snake Song - Written by Jim Ow
TTITLE5=Lover And A Friend - written b
TTITLE6=West Bound Freight - Written b
TTITLE7=Daddy's Martin - Written by Su
TTITLE8=Those Good Old Dreams - Writte
TTITLE9=Roy Cost  - The Day The Sky Fell
TTITLE10=Heart, It's Over - Written by
TTITLE11=I'M Putting In My Time - Writt
TTITLE12=A Song for Sara - Written by K
TTITLE13=Lay That Pistol Down - Written
TTITLE14=Children Sang - Written By Roy
TTITLE15=Here in Me - Written by Brett
TTITLE16=I'm Coming Home - Written by W
TTITLE17=Shattered dreams - Written by
TTITLE18=Joyce Ramgatie and Roy Cost - A Country Christmas
TTITLE19=Joyce Ramgatie - Walking on the Arm of Jesus
TTITLE20=Kenny Peace  - Driving Home For Christmas
EXTD=
EXTT0=
EXTT1=
EXTT2=
EXTT3=
EXTT4=
EXTT5=
EXTT6=
EXTT7=
EXTT8=
EXTT9=
EXTT10=
EXTT11=
EXTT12=
EXTT13=
EXTT14=
EXTT15=
EXTT16=
EXTT17=
EXTT18=
EXTT19=
EXTT20=
PLAYORDER=
